<?xml version="1.0" standalone="no"?><!DOCTYPE svg PUBLIC "-//W3C//DTD SVG 1.1//EN" "http://www.w3.org/Graphics/SVG/1.1/DTD/svg11.dtd"><svg t="1679388585828" class="icon" viewBox="0 0 1024 1024" version="1.1" xmlns="http://www.w3.org/2000/svg" p-id="10644" xmlns:xlink="http://www.w3.org/1999/xlink" width="200" height="200"><path d="M512 512m-512 0a512 512 0 1 0 1024 0 512 512 0 1 0-1024 0Z" fill="#FBD000" p-id="10645"></path><path d="M786.4 800c0 22.4-17.6 40-40 40H295.2c-22.4 0-40-17.6-40-40V478.4c0-22.4 17.6-40 40-40h451.2c22.4 0 40 17.6 40 40V800z" fill="#00B3F9" p-id="10646"></path><path d="M746.4 792H295.2c-22.4 0-40-23.2-40-45.6v53.6c0 22.4 17.6 40 40 40h451.2c22.4 0 40-17.6 40-40v-53.6c0 22.4-18.4 45.6-40 45.6zM255.2 478.4V576h531.2V478.4c0-22.4-17.6-40-40-40H295.2c-21.6 0-40 17.6-40 40z" fill="#0798E8" p-id="10647"></path><path d="M464 438.4h119.2v402.4H464z" fill="#FFFFFF" p-id="10648"></path><path d="M464 438.4h120V576H464z" fill="#00B3F9" opacity=".3" p-id="10649"></path><path d="M343.2 349.6l53.6-112 117.6 78.4h17.6l117.6-78.4 54.4 112" fill="#FFFFFF" p-id="10650"></path><path d="M532 319.2h-17.6l-11.2-7.2H362.4l-19.2 40.8H704L684 312H543.2z" fill="#00B3F9" opacity=".3" p-id="10651"></path><path d="M320 336h400v95.2H320z" fill="#FFFFFF" p-id="10652"></path><path d="M519.2 392.8m-86.4 0a86.4 86.4 0 1 0 172.8 0 86.4 86.4 0 1 0-172.8 0Z" fill="#FFFFFF" p-id="10653"></path><path d="M810.4 484c0 22.4-17.6 40-40 40H271.2c-22.4 0-40-17.6-40-40v-58.4c0-22.4 17.6-40 40-40h499.2c22.4 0 40 17.6 40 40v58.4z" fill="#00B3F9" p-id="10654"></path><path d="M440 385.6h160v133.6H440z" fill="#FFFFFF" p-id="10655"></path><path d="M800 832H184c-4.8 0-8 3.2-8 8s4 8 8 8h616c4.8 0 8-3.2 8-8 0-4-4-8-8-8zM864 848h-32c-4.8 0-8-3.2-8-8s3.2-8 8-8h32c4.8 0 8 4 8 8 0 4.8-3.2 8-8 8z" fill="#0C508E" p-id="10656"></path><path d="M272 256c-17.6 0-32-14.4-32-32s14.4-32 32-32 32 14.4 32 32-14.4 32-32 32z m0-48.8c-9.6 0-16.8 8-16.8 16.8 0 9.6 8 16.8 16.8 16.8 9.6 0 16.8-8 16.8-16.8 0-9.6-7.2-16.8-16.8-16.8zM168 664c-17.6 0-32-14.4-32-32s14.4-32 32-32 32 14.4 32 32-14.4 32-32 32z m0-48.8c-9.6 0-16.8 8-16.8 16.8 0 9.6 8 16.8 16.8 16.8 9.6 0 16.8-8 16.8-16.8 0-9.6-7.2-16.8-16.8-16.8zM872 728c-17.6 0-32-14.4-32-32s14.4-32 32-32 32 14.4 32 32-14.4 32-32 32z m0-48.8c-9.6 0-16.8 8-16.8 16.8 0 9.6 8 16.8 16.8 16.8 9.6 0 16.8-8 16.8-16.8 0-9.6-7.2-16.8-16.8-16.8zM842.4 257.6c0-3.2-3.2-6.4-8-7.2l-15.2-2.4c-4-0.8-8.8-4.8-8.8-8.8L808 224c-0.8-4-4-8-7.2-8s-6.4 3.2-7.2 8l-1.6 16c-0.8 4-4.8 8.8-8.8 8.8l-15.2 2.4c-4 0.8-8 4-8 7.2s3.2 6.4 8 7.2l15.2 2.4c4 0.8 8.8 4.8 8.8 8.8l2.4 15.2c0.8 4 4 8 7.2 8s6.4-3.2 6.4-8l2.4-16.8c0.8-4 4.8-8 8.8-8.8l14.4-0.8c4.8-1.6 8.8-4.8 8.8-8zM538.4 130.4c0-3.2-3.2-6.4-8-7.2l-15.2-2.4c-4-0.8-8.8-4.8-8.8-8.8l-2.4-14.4c-0.8-4-4-8-7.2-8s-6.4 3.2-7.2 8l-1.6 15.2c-0.8 4-4.8 8.8-8.8 8.8l-15.2 2.4c-4 0.8-8 4-8 7.2s3.2 6.4 8 7.2l15.2 2.4c4 0.8 8.8 4.8 8.8 8.8l2.4 15.2c0.8 4 4 8 7.2 8s6.4-3.2 6.4-8l2.4-16.8c0.8-4 4.8-8 8.8-8.8l14.4-0.8c4.8-1.6 8.8-4.8 8.8-8zM958.4 520.8c0-3.2-3.2-6.4-8-7.2l-15.2-2.4c-4-0.8-8.8-4.8-8.8-8.8l-2.4-15.2c-0.8-4-4-8-7.2-8s-6.4 3.2-7.2 8l-2.4 15.2c-0.8 4-4.8 8.8-8.8 8.8l-15.2 2.4c-4 0.8-8 4-8 7.2s3.2 6.4 8 7.2l15.2 2.4c4 0.8 8.8 4.8 8.8 8.8l2.4 15.2c0.8 4 4 8 7.2 8s6.4-3.2 6.4-8l2.4-16.8c0.8-4 4.8-8 8.8-8.8l14.4-0.8c6.4-1.6 9.6-4.8 9.6-7.2z" fill="#FFFFFF" p-id="10657"></path><path d="M768 483.2c-4.8 0-8-3.2-8-8V448c0-8.8-7.2-16-16-16H636c-4.8 0-8-3.2-8-8s3.2-8 8-8H744c17.6 0 32 14.4 32 32v27.2c0 4.8-3.2 8-8 8zM417.6 432H277.6c-4.8 0-8-3.2-8-8s3.2-8 8-8h140c4.8 0 8 3.2 8 8s-4 8-8 8zM752 750.4c-4.8 0-8-3.2-8-8V596c0-4.8 3.2-8 8-8s8 3.2 8 8v146.4c0 4.8-3.2 8-8 8z" fill="#FFFFFF" opacity=".5" p-id="10658"></path><path d="M520.8 333.6c11.2 0 36.8 9.6 44.8 28" fill="#FFFFFF" p-id="10659"></path><path d="M568 369.6c-3.2 0-6.4-1.6-7.2-4-7.2-14.4-31.2-22.4-39.2-22.4-4.8 0-8-3.2-8-7.2s4-7.2 8-7.2c12.8 0 43.2 9.6 54.4 30.4 1.6 4 0 8-4 9.6-1.6 0-3.2 0.8-4 0.8z" fill="#0C508E" opacity=".5" p-id="10660"></path><path d="M464 792h120v48H464z" fill="#00B3F9" opacity=".3" p-id="10661"></path><path d="M768 376h-40v-40c0-4.8-3.2-8-8-8h-17.6L664 248c-0.8-2.4-8-16-16-16-2.4 0-14.4 6.4-16 8l-91.2 60.8c-7.2-1.6-14.4-2.4-21.6-2.4-4.8 0-10.4 0.8-15.2 1.6L416 240s-13.6-8-16-8c-8 0-15.2 13.6-16 16l-39.2 80H320c-4.8 0-8 3.2-8 8v40h-40.8c-26.4 0-47.2 21.6-47.2 48v56c0 17.6 9.6 33.6 24 41.6V800c0 26.4 20.8 48 47.2 48H744c26.4 0 48-20.8 48-48V521.6c14.4-8 24-24 24-41.6v-56c0-26.4-21.6-48-48-48z m-56-32v32H612c-2.4-11.2-6.4-22.4-12-32h112z m-65.6-94.4l37.6 78.4H587.2c-8-8-17.6-15.2-28-20l87.2-58.4z m-127.2 64.8c37.6 0 68.8 26.4 76.8 61.6H442.4c8-35.2 39.2-61.6 76.8-61.6zM400 249.6l83.2 56c-12.8 4.8-24 12.8-32.8 22.4h-88l37.6-78.4zM328 344h110.4c-5.6 9.6-10.4 20.8-12 32H328v-32z m448 456c0 17.6-14.4 32-32 32H295.2c-17.6 0-32-14.4-32-32V527.2c2.4 0.8 5.6 0.8 8 0.8H768c2.4 0 5.6 0 8-0.8V800z m24-320c0 17.6-14.4 32-32 32H271.2c-17.6 0-32-14.4-32-32v-56c0-17.6 14.4-32 32-32H768c17.6 0 32 14.4 32 32v56z" fill="#0C508E" p-id="10662"></path></svg>