<?xml version="1.0" encoding="UTF-8"?>
<svg width="163px" height="35px" viewBox="0 0 163 35" version="1.1" xmlns="http://www.w3.org/2000/svg" xmlns:xlink="http://www.w3.org/1999/xlink">
    <defs>
        <polygon id="path-1" points="0.0820751897 0.232382794 5.9440531 0.232382794 5.9440531 10.32 0.0820751897 10.32"></polygon>
    </defs>
    <g id="ym1" stroke="none" stroke-width="1" fill="none" fill-rule="evenodd">
        <g id="hb" transform="translate(-38.000000, -17.000000)">
            <g id="bz-2" transform="translate(38.000000, 17.000000)">
                <g id="bz">
                    <path d="M26.57328,6.34368 C26.76528,6.37464 26.93808,6.30624 27.0108,6.16752 C27.3144,5.58768 27.48408,4.82664 27.46464,3.97584 C27.4212,2.07072 26.4312,0.34464 25.21416,0.04536 C23.95392,-0.26448 22.86048,1.04808 22.81104,3.06072 C22.78896,3.96144 22.98168,4.83912 23.32176,5.56392 C23.40216,5.73552 23.59224,5.8668 23.80104,5.90016 L26.57328,6.34368 Z" id="Fill-1" fill="#00CFAC"></path>
                    <path d="M25.214256,9.985176 L25.214256,9.985176 C24.222096,9.880536 23.409216,9.087816 23.424336,8.230296 L23.436336,7.524456 C23.441136,7.252536 23.707776,7.070856 24.029376,7.117176 L26.360736,7.451976 C26.659296,7.494936 26.902656,7.739256 26.906976,7.999416 L26.918016,8.674056 C26.931456,9.493656 26.179296,10.087176 25.214256,9.985176" id="Fill-3" fill="#00CFAC"></path>
                    <path d="M18.921768,6.781512 C19.099608,6.672792 19.167048,6.483432 19.089528,6.297912 C18.760968,5.515272 18.140568,4.634952 17.261688,3.780792 C15.204648,1.782072 12.409128,0.602712 11.000088,1.213992 C9.520008,1.856232 10.175928,4.184712 12.481848,6.336072 C13.465848,7.254072 14.569608,7.964712 15.600648,8.403912 C15.841128,8.506392 16.125288,8.490552 16.323288,8.369592 L18.921768,6.781512 Z" id="Fill-5" fill="#8B65FF"></path>
                    <path d="M21.268104,10.99908 L21.268104,10.99908 C20.448984,11.595 19.124184,11.49252 18.328344,10.74492 L17.658024,10.11564 C17.395944,9.86964 17.422344,9.51492 17.714664,9.32604 L19.814664,7.9698 C20.081064,7.79772 20.491944,7.85004 20.734104,8.08428 L21.354504,8.6838 C22.091304,9.39564 22.060344,10.4226 21.268104,10.99908" id="Fill-7" fill="#8B65FF"></path>
                    <path d="M13.411968,12.72432 C13.436688,12.49992 13.288848,12.28536 13.030128,12.17976 C11.919648,11.72712 10.431408,11.39328 8.714928,11.2716 C4.487808,10.97208 0.432768,12.0696 0.031968,13.79952 C-0.382272,15.58656 3.289008,17.09472 7.807008,17.11248 C9.634848,17.11944 11.277408,16.87608 12.541008,16.47672 C12.832608,16.38456 13.034208,16.16784 13.060608,15.92904 L13.411968,12.72432 Z" id="Fill-9" fill="#8B65FF"></path>
                    <path d="M19.302504,14.53416 L19.302504,14.53416 C19.247304,15.5556 18.197544,16.38384 16.921704,16.36632 L15.823464,16.35096 C15.388104,16.3452 15.058104,16.05024 15.090744,15.69504 L15.329064,13.09248 C15.359784,12.756 15.727224,12.50568 16.146024,12.53136 L17.202504,12.59664 C18.431544,12.67224 19.356744,13.53144 19.302504,14.53416" id="Fill-11" fill="#8B65FF"></path>
                    <path d="M15.219936,21.180576 C15.024336,21.011136 14.711376,20.965776 14.421456,21.072096 C13.165056,21.532416 11.729616,22.346256 10.325616,23.474736 C6.819696,26.292576 4.976976,29.855616 6.579216,31.097376 C8.155056,32.318976 12.218256,30.618336 15.338016,27.640896 C16.589856,26.445936 17.493696,25.230816 18.007776,24.166176 C18.126816,23.919216 18.077136,23.654736 17.887536,23.490336 L15.219936,21.180576 Z" id="Fill-13" fill="#FF2967"></path>
                    <path d="M20.990016,18.463224 L20.990016,18.463224 C21.797616,19.197864 21.760656,20.427624 20.886336,21.242424 L20.131056,21.946104 C19.831056,22.225704 19.358256,22.255224 19.077696,22.008264 L16.937616,20.125224 C16.649376,19.871544 16.681056,19.446024 17.005536,19.178424 L17.822256,18.505704 C18.767376,17.726904 20.174976,17.721864 20.990016,18.463224" id="Fill-15" fill="#FF2967"></path>
                    <g transform="translate(22.080000, 24.599760)">
                        <mask id="mask-2" fill="white">
                            <use xlink:href="#path-1"></use>
                        </mask>
                        <g id="Clip-18"></g>
                        <path d="M1.450512,0.586272 C1.200672,0.612912 0.968352,0.781152 0.863712,1.018512 C0.413472,2.041872 0.120432,3.348912 0.085632,4.768992 C0.002112,8.166672 1.400352,10.699392 3.134352,10.273152 C4.787232,9.866592 6.011712,6.922752 5.941152,3.824832 C5.911632,2.526192 5.660832,1.386912 5.267952,0.526752 C5.175312,0.324192 4.967712,0.211392 4.741632,0.235632 L1.450512,0.586272 Z" id="Fill-17" fill="#FF2967" mask="url(#mask-2)"></path>
                    </g>
                    <path d="M25.214256,19.98948 L25.214256,19.98948 C26.270016,19.9518 27.116736,20.7378 27.133536,21.76044 L27.147696,22.62852 C27.153456,22.9698 26.882016,23.271 26.538336,23.2998 L23.838816,23.5266 C23.464176,23.55804 23.162736,23.289 23.169216,22.92708 L23.185056,22.00668 C23.204016,20.92404 24.125856,20.02812 25.214256,19.98948" id="Fill-19" fill="#FF2967"></path>
                    <path d="M31.285056,22.456512 C31.154256,22.615392 31.119696,22.841952 31.202256,23.032032 C31.552896,23.839872 32.149536,24.686112 32.936736,25.420512 C34.721136,27.085392 36.727296,27.488112 37.424256,26.395152 C38.092176,25.347552 37.320336,23.272752 35.696016,21.694032 C34.980096,20.998752 34.204656,20.498352 33.486096,20.228352 C33.314736,20.163792 33.127296,20.217552 33.008736,20.361552 L31.285056,22.456512 Z" id="Fill-21" fill="#FFCD00"></path>
                    <path d="M28.9884,18.356112 L28.9884,18.356112 C29.62584,17.689152 30.6684,17.685552 31.3296,18.324672 L31.87824,18.854832 C32.09064,19.060272 32.11128,19.401552 31.92312,19.620192 L30.44448,21.336432 C30.23928,21.574512 29.8872,21.596592 29.65944,21.382752 L29.07096,20.830272 C28.3608,20.163792 28.33032,19.044672 28.9884,18.356112" id="Fill-23" fill="#FFCD00"></path>
                    <path d="M34.262544,16.319856 C34.277184,16.498176 34.388304,16.663056 34.547424,16.735536 C35.215104,17.040816 36.033744,17.223456 36.884784,17.226576 C38.755584,17.234016 40.071744,16.372176 39.931344,15.320496 C39.793344,14.288496 38.288544,13.366896 36.469584,13.238256 C35.643504,13.179696 34.880064,13.291776 34.279344,13.531296 C34.135344,13.588656 34.052544,13.737696 34.066224,13.907856 L34.262544,16.319856 Z" id="Fill-25" fill="#FFCD00"></path>
                    <path d="M30.280272,14.952528 L30.280272,14.952528 C30.240432,14.088768 30.906672,13.441728 31.747632,13.493568 L32.433792,13.536048 C32.696592,13.552128 32.923392,13.779648 32.942352,14.045328 L33.087072,16.087248 C33.106752,16.364448 32.906112,16.587168 32.636592,16.583328 L31.933392,16.573488 C31.070592,16.561728 30.320592,15.829968 30.280272,14.952528" id="Fill-27" fill="#FFCD00"></path>
                    <path d="M32.320992,10.19376 C32.446752,10.32216 32.625792,10.37976 32.775312,10.33728 C33.398832,10.15872 34.036032,9.79632 34.579392,9.27768 C35.770032,8.14128 36.088992,6.64776 35.357232,5.86704 C34.618752,5.07912 33.017952,5.2368 31.708512,6.28896 C31.110192,6.76992 30.672672,7.35624 30.436032,7.94376 C30.379392,8.08416 30.428592,8.26104 30.557232,8.39256 L32.320992,10.19376 Z" id="Fill-29" fill="#00CFAC"></path>
                    <path d="M28.764696,11.646648 L28.764696,11.646648 C28.109976,10.997928 28.084296,10.049208 28.694616,9.546168 L29.191176,9.136968 C29.381016,8.980728 29.697576,9.021048 29.899416,9.225288 L31.403016,10.747368 C31.600776,10.947768 31.618776,11.242008 31.441656,11.407128 L30.979176,11.838168 C30.410616,12.367848 29.414376,12.290568 28.764696,11.646648" id="Fill-31" fill="#00CFAC"></path>
                    <path d="M28.873104,14.898624 C28.935744,16.781424 27.349584,18.377664 25.214304,18.406224 C22.941984,18.436464 21.055584,16.701984 21.133824,14.603664 C21.209184,12.583104 23.087904,11.155824 25.214304,11.339664 C27.219984,11.513184 28.812384,13.078464 28.873104,14.898624" id="Fill-33" fill="#3434B2"></path>
                </g>
                <text id="Footprint" font-family="Montserrat-Medium, Montserrat" font-size="24" font-weight="400" fill="#3434B2">
                    <tspan x="50" y="24.7890625">Footprint</tspan>
                </text>
            </g>
        </g>
    </g>
</svg>
