<?xml version="1.0" encoding="UTF-8"?>
<svg width="40px" height="37px" viewBox="0 0 40 37" version="1.1" xmlns="http://www.w3.org/2000/svg" xmlns:xlink="http://www.w3.org/1999/xlink">
    <defs>
        <polygon id="path-1" points="0.447529412 0.0435294118 10.6851765 0.0435294118 10.6851765 13.4993529 0.447529412 13.4993529"></polygon>
        <polygon id="path-3" points="0.463588235 0.267117647 17.6594118 0.267117647 17.6594118 10.953 0.463588235 10.953"></polygon>
    </defs>
    <g id="ym1" stroke="none" stroke-width="1" fill="none" fill-rule="evenodd">
        <g id="hb" transform="translate(-65.000000, -125.000000)">
            <g id="bz-25" transform="translate(37.000000, 116.000000)">
                <g id="bz" transform="translate(28.000000, 9.000000)">
                    <path d="M10.8361176,18.5448824 C10.8361176,16.7684118 11.5949412,15.1707647 12.8002353,14.0442941 L12.8002353,13.4260588 L2.56023529,13.4260588 C1.152,13.4260588 0.000235294118,14.5784118 0.000235294118,15.9860588 L0.000235294118,21.1037059 C0.000235294118,22.5113529 1.152,23.6637059 2.56023529,23.6637059 L12.8002353,23.6637059 L12.8002353,23.0448824 C11.5949412,21.9184118 10.8361176,20.3207647 10.8361176,18.5448824" id="Fill-1" fill="#FFCD00"></path>
                    <g transform="translate(12.352941, 0.544706)">
                        <mask id="mask-2" fill="white">
                            <use xlink:href="#path-1"></use>
                        </mask>
                        <g id="Clip-4"></g>
                        <path d="M4.64988235,11.8334706 L4.684,11.8334706 L6.68047059,11.8334706 L10.6851765,11.8334706 L10.6851765,3.89817647 C10.6851765,1.77817647 8.95047059,0.0434705882 6.83047059,0.0434705882 L4.30223529,0.0434705882 C2.18223529,0.0434705882 0.447529412,1.77817647 0.447529412,3.89817647 L0.447529412,12.8811176 L0.447529412,13.4993529 C1.54988235,12.4693529 3.02517647,11.8334706 4.64988235,11.8334706" id="Fill-3" fill="#00CFAC" mask="url(#mask-2)"></path>
                    </g>
                    <path d="M17.037,24.7115882 L17.0028824,24.7115882 C15.3781765,24.7115882 13.9028824,24.0751176 12.8005294,23.0451176 L12.8005294,23.6639412 L12.8005294,32.5104118 C12.8005294,34.6645294 14.5628824,36.4268824 16.7175882,36.4268824 L19.1211176,36.4268824 C21.2758235,36.4268824 23.0381765,34.6645294 23.0381765,32.5104118 L23.0381765,24.7115882 L19.0334706,24.7115882 L17.037,24.7115882 Z" id="Fill-5" fill="#FF2967"></path>
                    <g transform="translate(21.764706, 12.897647)">
                        <mask id="mask-4" fill="white">
                            <use xlink:href="#path-3"></use>
                        </mask>
                        <g id="Clip-8"></g>
                        <path d="M0.463588235,8.61888235 L0.463588235,8.713 C0.463588235,9.16182353 0.725352941,9.57123529 1.13711765,9.74888235 C2.88123529,10.5012353 5.10829412,10.953 7.53652941,10.953 C13.1271176,10.953 17.6594706,8.56064706 17.6594706,5.61005882 C17.6594706,2.65888235 13.1271176,0.267117647 7.53652941,0.267117647 C5.10829412,0.267117647 2.88123529,0.718294118 1.13711765,1.47123529 C0.725352941,1.64829412 0.463588235,2.05829412 0.463588235,2.50652941 L0.463588235,2.67535294 L0.463588235,8.61888235 Z" id="Fill-7" fill="#8B65FF" mask="url(#mask-4)"></path>
                    </g>
                    <path d="M20.4635882,21.5165294 L20.4635882,15.573 C20.4635882,14.783 19.8235882,14.143 19.0335882,14.143 L17.003,14.143 C14.5712353,14.143 12.6006471,16.1135882 12.6006471,18.5447647 C12.6006471,20.9759412 14.5712353,22.9471176 17.003,22.9471176 L19.0335882,22.9471176 C19.8235882,22.9471176 20.4635882,22.3065294 20.4635882,21.5165294" id="Fill-9" fill="#8B65FF"></path>
                </g>
            </g>
        </g>
    </g>
</svg>
