<?xml version="1.0" encoding="UTF-8"?>
<svg width="32px" height="33px" viewBox="0 0 32 33" version="1.1" xmlns="http://www.w3.org/2000/svg" xmlns:xlink="http://www.w3.org/1999/xlink">
    <defs>
        <linearGradient x1="50%" y1="0%" x2="50%" y2="100%" id="linearGradient-1">
            <stop stop-color="#31DFFF" offset="0%"></stop>
            <stop stop-color="#6DE8FF" offset="100%"></stop>
        </linearGradient>
        <linearGradient x1="50%" y1="37.4556108%" x2="50%" y2="100%" id="linearGradient-2">
            <stop stop-color="#FF8300" offset="0%"></stop>
            <stop stop-color="#FFBD00" offset="100%"></stop>
        </linearGradient>
        <linearGradient x1="50%" y1="0%" x2="50%" y2="100%" id="linearGradient-3">
            <stop stop-color="#52C3FE" offset="0%"></stop>
            <stop stop-color="#527AFF" offset="100%"></stop>
        </linearGradient>
    </defs>
    <g id="ym" stroke="none" stroke-width="1" fill="none" fill-rule="evenodd">
        <g id="hb" transform="translate(-1532.000000, -16.000000)">
            <g id="bz-8" transform="translate(1532.000000, 16.570312)">
                <rect id="jx" x="0" y="0" width="32" height="32"></rect>
                <g id="bz-10bf" transform="translate(4.800000, 2.400000)">
                    <rect id="jxbf-18" fill="url(#linearGradient-1)" x="3.2" y="2.4" width="19.2" height="23.2" rx="3"></rect>
                    <path d="M1.6,10.4 L10.4,10.4 L10.4,26.3021704 C10.4,26.8544552 9.95228475,27.3021704 9.4,27.3021704 C9.23034953,27.3021704 9.06348797,27.2590094 8.91511538,27.1767485 L6,25.5605469 L6,25.5605469 L3.08488462,27.1767485 C2.60186846,27.4445429 1.99321626,27.2700712 1.72542187,26.787055 C1.64316097,26.6386824 1.6,26.4718209 1.6,26.3021704 L1.6,10.4 L1.6,10.4 Z" id="jxbf-7" fill="url(#linearGradient-2)"></path>
                    <rect id="jx" fill="url(#linearGradient-3)" x="0" y="0" width="19.2" height="23.2" rx="3"></rect>
                    <path d="M10,14.4106213 L8.55460847,15.0709071 C8.05225855,15.3003913 7.45898977,15.07919 7.22950556,14.57684 C7.15385045,14.411228 7.12484636,14.2281034 7.14562172,14.0472183 L7.32694032,12.4685297 L7.32694032,12.4685297 L6.25232063,11.2979203 C5.87883351,10.8910716 5.90587838,10.2584845 6.31272702,9.88499737 C6.44685468,9.76186816 6.6120538,9.67769501 6.79050568,9.64155698 L8.34795826,9.32615962 L8.34795826,9.32615962 L9.1291983,7.94239734 C9.40072048,7.46146684 10.0107039,7.29170786 10.4916344,7.56323005 C10.650185,7.65274401 10.7812877,7.78384678 10.8708017,7.94239734 L11.6520417,9.32615962 L11.6520417,9.32615962 L13.2094943,9.64155698 C13.7507914,9.75117423 14.100737,10.2788445 13.9911198,10.8201416 C13.9549817,10.9985935 13.8708086,11.1637926 13.7476794,11.2979203 L12.6730597,12.4685297 L12.6730597,12.4685297 L12.8543783,14.0472183 C12.9173961,14.595896 12.5236909,15.0917732 11.9750133,15.154791 C11.7941282,15.1755663 11.6110035,15.1465622 11.4453915,15.0709071 L10,14.4106213 L10,14.4106213 Z" id="xx" fill="#FFFFFF"></path>
                </g>
            </g>
        </g>
    </g>
</svg>
