<?xml version="1.0" encoding="UTF-8"?>
<svg width="51px" height="47px" viewBox="0 0 51 47" version="1.1" xmlns="http://www.w3.org/2000/svg" xmlns:xlink="http://www.w3.org/1999/xlink">
    <defs>
        <polygon id="path-1" points="0.103166742 0.297509419 7.47154646 0.297509419 7.47154646 13.2122398 0.103166742 13.2122398"></polygon>
    </defs>
    <g id="a1" stroke="none" stroke-width="1" fill="none" fill-rule="evenodd">
        <g id="a2" transform="translate(-360.000000, -31.000000)">
            <g id="a4" transform="translate(360.000000, 26.000000)">
                <g id="a5" transform="translate(0.000000, 5.237410)">
                    <path d="M33.4020394,8.12153308 C33.6433793,8.1611698 33.8605852,8.07360031 33.9519926,7.89600322 C34.3336113,7.1536597 34.5468954,6.17933383 34.5224597,5.0900922 C34.4678566,2.65105128 33.2234479,0.441227357 31.6936549,0.0580724029 C30.1095604,-0.338602053 28.73513,1.34181049 28.672985,3.91850452 C28.6452309,5.07165652 28.8874758,6.19531142 29.314949,7.12324082 C29.41601,7.34293272 29.6549365,7.5110047 29.9173936,7.55371403 L33.4020394,8.12153308 Z" id="Fill-1" fill="#00CFAC"></path>
                    <path d="M31.6937756,12.7835794 L31.6937756,12.7835794 C30.4466519,12.6496135 29.4248793,11.6347291 29.4438848,10.5368842 L29.4589685,9.6332284 C29.465002,9.28510125 29.8001628,9.05250437 30.204407,9.11180582 L33.1348762,9.54043546 C33.5101597,9.59543525 33.816058,9.90822735 33.8214881,10.2412987 L33.8353651,11.1050105 C33.8522589,12.1543081 32.9068101,12.9141655 31.6937756,12.7835794" id="Fill-3" fill="#00CFAC"></path>
                    <path d="M23.784254,8.68207004 C24.007795,8.54288063 24.0925657,8.30045139 23.9951247,8.06293834 C23.5821319,7.06095894 22.8023025,5.93392416 21.6975693,4.84038087 C19.1119144,2.28150801 15.5980061,0.771625531 13.8268732,1.55422029 C11.9664446,2.37645178 12.7909219,5.35750179 15.6894135,8.1117929 C16.9262803,9.28706772 18.3136828,10.1968687 19.6096778,10.759157 C19.911956,10.8903577 20.269139,10.8700784 20.5180207,10.7152187 L23.784254,8.68207004 Z" id="Fill-5" fill="#8B65FF"></path>
                    <path d="M26.7335477,14.0816359 L26.7335477,14.0816359 C25.7039315,14.8445659 24.0386865,14.7133653 23.0383328,13.7562461 L22.1957551,12.9506067 C21.8663262,12.6356638 21.8995104,12.1815315 22.2669503,11.9397168 L24.906605,10.2033826 C25.241464,9.98307622 25.7579313,10.0500592 26.0623212,10.3499463 L26.8421506,11.1174853 C27.7682923,12.0288226 27.7293763,13.3435941 26.7335477,14.0816359" id="Fill-7" fill="#8B65FF"></path>
                    <path d="M16.8585543,16.2903844 C16.8896268,16.003095 16.7037951,15.7284033 16.3785897,15.5932083 C14.9827403,15.0137133 13.1120547,14.5863127 10.9544764,14.4305312 C5.6410778,14.047069 0.543980036,15.4521753 0.040183086,17.6669155 C-0.480507654,19.9547838 4.13421207,21.8856144 9.81324056,21.9083517 C12.110796,21.9172623 14.1754585,21.6056992 15.7637764,21.0944163 C16.1303113,20.9764279 16.3837181,20.6989709 16.4169024,20.3932458 L16.8585543,16.2903844 Z" id="Fill-9" fill="#8B65FF"></path>
                    <path d="M24.2628309,18.6074426 L24.2628309,18.6074426 C24.1934457,19.9151471 22.8739201,20.9755061 21.2702167,20.953076 L19.8897527,20.9334113 C19.3425146,20.926037 18.9277117,20.5484128 18.9687395,20.0936659 L19.2683026,16.7617234 C19.306917,16.3309429 19.7687811,16.0104693 20.2952037,16.0433463 L21.6231763,16.1269214 C23.168053,16.2237087 24.3310094,17.3237045 24.2628309,18.6074426" id="Fill-11" fill="#8B65FF"></path>
                    <path d="M19.1311311,27.1165552 C18.8852661,26.8996286 18.4918821,26.8415562 18.1274589,26.977673 C16.5481913,27.5670004 14.7438742,28.6089237 12.9790765,30.0536668 C8.57221068,33.6612228 6.25595142,38.2228254 8.26993251,39.8125958 C10.2507294,41.3765563 15.3580841,39.1993021 19.2795551,35.3874173 C20.8530909,33.8575628 21.9891983,32.3018984 22.6353858,30.9388869 C22.7850165,30.6227149 22.7225698,30.2841129 22.4842467,30.0736388 L19.1311311,27.1165552 Z" id="Fill-13" fill="#FF2967"></path>
                    <path d="M26.3839971,23.6376495 L26.3839971,23.6376495 C27.3991329,24.5781766 27.3526749,26.152584 26.2536736,27.1957364 L25.3043029,28.0966268 C24.9272094,28.4545864 24.33291,28.4923795 23.9802521,28.1762075 L21.2902178,25.7654347 C20.9279063,25.4406594 20.9677274,24.8958849 21.3755917,24.5532885 L22.4021911,23.6920348 C23.5901866,22.6949716 25.3595094,22.6885191 26.3839971,23.6376495" id="Fill-15" fill="#FF2967"></path>
                    <g transform="translate(27.754083, 31.493985)">
                        <mask id="mask-2" fill="white">
                            <use xlink:href="#path-1"></use>
                        </mask>
                        <g id="Clip-18"></g>
                        <path d="M1.82326228,0.750578126 C1.50921879,0.78468414 1.21719756,1.00007438 1.08566734,1.30395589 C0.51972538,2.61411846 0.151380425,4.287464 0.107637576,6.10552965 C0.00265473842,10.4554292 1.76021224,13.6979586 3.93981282,13.1522624 C6.0174473,12.6317616 7.55659223,8.86289337 7.46789984,4.89676333 C7.43079383,3.23417195 7.11554365,1.77560213 6.62170197,0.674377301 C6.50525549,0.415048687 6.24430677,0.270635833 5.96012909,0.301669234 L1.82326228,0.750578126 Z" id="Fill-17" fill="#FF2967" mask="url(#mask-2)"></path>
                    </g>
                    <path d="M31.6937756,25.5916476 L31.6937756,25.5916476 C33.0208431,25.5434076 34.0851519,26.5496886 34.1062691,27.8589294 L34.124068,28.9702939 C34.1313081,29.4072196 33.7901139,29.7928326 33.3581156,29.829704 L29.9648772,30.120066 C29.4939628,30.1603172 29.1150592,29.8158772 29.1232045,29.352527 L29.143115,28.1741796 C29.1669473,26.7881235 30.3256803,25.6411167 31.6937756,25.5916476" id="Fill-19" fill="#FF2967"></path>
                    <path d="M39.3246402,28.7500796 C39.1602274,28.9534867 39.1167862,29.2435414 39.2205624,29.4868924 C39.6613093,30.5211343 40.4112729,31.604538 41.4007663,32.5447578 C43.6437186,34.6762301 46.1654184,35.1918147 47.0414821,33.7925463 C47.8810431,32.4513503 46.9108569,29.7950756 44.8691217,27.7739102 C43.9692257,26.8837739 42.9945144,26.2431339 42.0913,25.8974649 C41.8759041,25.8148116 41.6402961,25.8836381 41.4912687,26.067995 L39.3246402,28.7500796 Z" id="Fill-21" fill="#FFCD00"></path>
                    <path d="M36.4377932,23.5005188 L36.4377932,23.5005188 C37.2390415,22.6466394 38.5495169,22.6420304 39.380631,23.4602675 L40.0702597,24.1390079 C40.3372419,24.4020237 40.3631859,24.8389494 40.1266729,25.1188645 L38.2680543,27.3160907 C38.0101223,27.620894 37.5675654,27.6491621 37.2812759,27.3753922 L36.5415693,26.6680764 C35.6489135,25.8148116 35.6106008,24.3820517 36.4377932,23.5005188" id="Fill-23" fill="#FFCD00"></path>
                    <path d="M43.0672783,20.8935902 C43.0856805,21.1218854 43.2253559,21.332974 43.4253663,21.425767 C44.2646257,21.8166034 45.2936385,22.0504294 46.3633774,22.0544238 C48.7149326,22.0639489 50.3693174,20.9605732 50.1928376,19.6141538 C50.0193746,18.2929298 48.1278734,17.1130461 45.84148,16.948354 C44.8031152,16.8733822 43.8434876,17.0168733 43.0883956,17.3235201 C42.9073907,17.3969556 42.8033129,17.5877649 42.8205083,17.8056132 L43.0672783,20.8935902 Z" id="Fill-25" fill="#FFCD00"></path>
                    <path d="M38.0616484,19.1430606 L38.0616484,19.1430606 C38.0115704,18.0372269 38.8490197,17.2088502 39.9060882,17.2752186 L40.7685765,17.3296039 C41.0989105,17.3501904 41.3839932,17.6414742 41.4078255,17.9816126 L41.5897354,20.5957925 C41.6144727,20.9506794 41.3622726,21.235818 41.0234918,21.2309018 L40.1395845,21.2183041 C39.0550636,21.2032483 38.1123297,20.2664083 38.0616484,19.1430606" id="Fill-27" fill="#FFCD00"></path>
                    <path d="M40.6267894,13.0506203 C40.784867,13.2150052 41.0099164,13.2887479 41.1978598,13.2343626 C41.981611,13.0057602 42.7825576,12.5417955 43.4655494,11.8778036 C44.9621582,10.4229209 45.363084,8.51083327 44.4432775,7.51131196 C43.5150241,6.50257282 41.502853,6.70444355 39.8569152,8.05147749 C39.1048399,8.66722931 38.5548867,9.41786889 38.2574353,10.1700448 C38.1862401,10.3497927 38.2480834,10.5762443 38.4097811,10.7446236 L40.6267894,13.0506203 Z" id="Fill-29" fill="#00CFAC"></path>
                    <path d="M36.1566021,14.9106886 L36.1566021,14.9106886 C35.3336331,14.0801611 35.3013539,12.8655568 36.068513,12.2215369 L36.6926782,11.6976562 C36.931303,11.4976291 37.3292121,11.549249 37.5829206,11.8107284 L39.4729133,13.7593802 C39.7214934,14.0159434 39.744119,14.3926459 39.521483,14.6040417 L38.9401556,15.1558832 C38.225488,15.8340091 36.9732358,15.7350709 36.1566021,14.9106886" id="Fill-31" fill="#00CFAC"></path>
                    <path d="M36.2928686,19.0740497 C36.3716057,21.4845153 34.3778368,23.5281108 31.6938359,23.5646749 C28.8375787,23.6033899 26.4664147,21.3828118 26.5647606,18.6964255 C26.6594865,16.1095918 29.020997,14.2823083 31.6938359,14.5176706 C34.2149324,14.7398205 36.2165448,16.7437793 36.2928686,19.0740497" id="Fill-33" fill="#FFFFFF"></path>
                </g>
            </g>
        </g>
    </g>
</svg>
