<?xml version="1.0" standalone="no"?><!DOCTYPE svg PUBLIC "-//W3C//DTD SVG 1.1//EN" "http://www.w3.org/Graphics/SVG/1.1/DTD/svg11.dtd"><svg t="1679388496202" class="icon" viewBox="0 0 1024 1024" version="1.1" xmlns="http://www.w3.org/2000/svg" p-id="4837" xmlns:xlink="http://www.w3.org/1999/xlink" width="200" height="200"><path d="M1024 512c0 282.7776-229.2224 512-512 512S0 794.7776 0 512 229.2224 0 512 0s512 229.2224 512 512z" fill="#00C853" p-id="4838"></path><path d="M702.144 307.2l2.9056 0.0768c42.3936 1.8944 76.032 37.3504 75.7504 80.5632v209.0624c0.2944 44.1728-34.8672 80.256-78.592 80.64h-95.7056l-9.8048 9.92-56.9344 56.192a40.448 40.448 0 0 1-28.0576 11.5456 40.0384 40.0384 0 0 1-28.0832-11.6736l-56.9088-56.064-1.856-1.8176-0.768-0.768-7.424-7.3344H321.792c-43.7248-0.384-78.8864-36.4672-78.592-80.64V387.84c-0.2944-44.16 34.8672-80.256 78.592-80.64h380.352zM512 460.8a38.4 38.4 0 1 0 0 76.8 38.4 38.4 0 0 0 0-76.8z m-128 0a38.4 38.4 0 1 0 0 76.8 38.4 38.4 0 0 0 0-76.8z m256 0a38.4 38.4 0 1 0 0 76.8 38.4 38.4 0 0 0 0-76.8z" fill="#FFFFFF" p-id="4839"></path></svg>