<?xml version="1.0" standalone="no"?><!DOCTYPE svg PUBLIC "-//W3C//DTD SVG 1.1//EN" "http://www.w3.org/Graphics/SVG/1.1/DTD/svg11.dtd"><svg t="1679388656864" class="icon" viewBox="0 0 1024 1024" version="1.1" xmlns="http://www.w3.org/2000/svg" p-id="14005" xmlns:xlink="http://www.w3.org/1999/xlink" width="200" height="200"><path d="M625.438 294.408l-93.876 78.54V197.846H196.796v121.194H80.666v671.388h593.468v-696.02h-48.696zM274.046 842.64c-13.994 11.928-27.988 23.908-42.032 35.888l-0.156-0.154c-10.896-9.294-24.062-19.416-34.958-28.71-13.58-11.67-31.242-23.082-31.242-43.118 0-18.332 14.872-33.15 33.204-33.15s33.152 14.82 33.152 33.15c0-18.332 14.872-33.15 33.204-33.15s33.15 14.82 33.15 33.15c0 17.04-12.548 26.078-24.322 36.094z m0-179.75c-13.994 11.98-27.988 23.908-42.032 35.888l-0.156-0.154c-10.896-9.296-24.062-19.416-34.958-28.71-13.58-11.62-31.242-23.082-31.242-43.118 0-18.28 14.872-33.152 33.204-33.152s33.152 14.872 33.152 33.152c0-18.28 14.872-33.152 33.204-33.152s33.15 14.872 33.15 33.152c0 17.042-12.548 26.078-24.322 36.094z m0-179.748c-13.994 11.98-27.988 23.96-42.032 35.888-0.052-0.052-0.104-0.104-0.156-0.104-10.896-9.346-24.062-19.466-34.958-28.76-13.58-11.62-31.242-23.084-31.242-43.066 0-18.332 14.872-33.204 33.204-33.204s33.152 14.872 33.152 33.204c0-18.332 14.872-33.204 33.204-33.204s33.15 14.872 33.15 33.204c0 16.986-12.548 26.024-24.322 36.042z" fill="#DFDFDF" p-id="14006"></path><path d="M831.816 429.316h75.102v464.234h-75.102z" fill="#F58E6F" p-id="14007"></path><path d="M906.916 421.574h-75.102a7.748 7.748 0 0 0-7.746 7.746v464.232a7.748 7.748 0 0 0 7.746 7.746h75.102a7.748 7.748 0 0 0 7.746-7.746V429.318a7.746 7.746 0 0 0-7.746-7.744z m-7.746 464.23H839.56v-448.74h59.61v448.74z" fill="#4A555F" p-id="14008"></path><path d="M861.622 429.318h15.492v464.232h-15.492z" fill="#4A555F" p-id="14009"></path><path d="M913.178 888.992a7.756 7.756 0 0 0-6.262-3.186h-75.102a7.752 7.752 0 0 0-6.264 3.186 7.734 7.734 0 0 0-1.11 6.934l37.554 116.496a7.744 7.744 0 0 0 14.744 0l37.548-116.496a7.726 7.726 0 0 0-1.108-6.934z m-43.81 95.806l-26.918-83.502h53.83l-26.912 83.502z" fill="#4A555F" p-id="14010"></path><path d="M850.594 944.054h37.548v15.492h-37.548zM869.368 344.53c-24.976 0-45.298 20.322-45.298 45.298v39.49a7.748 7.748 0 0 0 7.746 7.746h75.102a7.748 7.748 0 0 0 7.746-7.746v-39.49c-0.002-24.976-20.32-45.298-45.296-45.298z m29.802 77.044H839.56v-31.744c0-16.434 13.374-29.808 29.808-29.808 16.434 0 29.802 13.374 29.802 29.808v31.744z" fill="#4A555F" p-id="14011"></path><path d="M831.814 393.322h75.102v15.492h-75.102zM900.446 0H624.816c-41.77 0-75.746 33.98-75.746 75.75v257.026l71.838-62.204h279.538c41.768 0 75.746-33.98 75.746-75.746V75.75C976.192 33.98 942.214 0 900.446 0z m60.256 194.826c0 33.224-27.028 60.254-60.254 60.254H615.13l-50.568 43.79V75.75c0-33.226 27.028-60.258 60.256-60.258h275.63c33.226 0 60.254 27.032 60.254 60.258v119.076z" fill="#4A555F" p-id="14012"></path><path d="M900.458 33.586h-275.64c-23.288 0-42.188 18.9-42.188 42.136v183.57l25.768-22.308H900.46c23.236 0 42.188-18.9 42.188-42.188V75.724c-0.002-23.238-18.952-42.138-42.19-42.138z m-133.364 179.08c-40.07 0-72.55-33.926-72.55-75.752s32.48-75.752 72.55-75.752 72.55 33.926 72.55 75.752-32.48 75.752-72.55 75.752z" fill="#FFD452" p-id="14013"></path><path d="M191.196 166.672l-141.228 147.012 5.584 13.112h141.23l7.746-7.746V172.038l-13.332-5.366z m-2.16 144.632H73.734L189.036 191.28v120.024z" fill="#4A555F" p-id="14014"></path><path d="M692.914 262.816v745.692H63.298V322.166l136.784-142.384h356.714v-15.49H193.48l-145.672 151.642V1024h660.596V262.816z" fill="#4A555F" p-id="14015"></path><path d="M359.474 423.534h230.356v15.492H359.474zM359.474 471.218h106.542v15.49h-106.542zM359.474 616.282h230.356v15.492H359.474zM359.474 663.972h106.542v15.492h-106.542zM359.474 809.034h230.356v15.492H359.474zM359.474 856.724h106.542v15.492h-106.542zM265.206 406.152c-13.638 0-25.74 6.708-33.182 16.994-7.44-10.288-19.542-16.994-33.184-16.994-22.566 0-40.926 18.36-40.926 40.926 0 21.058 15.832 34.038 28.552 44.472 1.84 1.508 3.662 3 5.414 4.498 5.494 4.69 11.556 9.59 17.62 14.492 5.964 4.816 11.926 9.636 17.332 14.25l5.412 4.25 46.844-40.008 2.94-2.486c11.3-9.51 24.11-20.286 24.11-39.468-0.002-22.566-18.364-40.926-40.932-40.926z m6.848 68.54l-40.066 34.196c-4.114-3.414-8.432-6.904-12.75-10.398-5.954-4.806-11.904-9.616-17.296-14.22a341.674 341.674 0 0 0-5.65-4.694c-11.768-9.652-22.884-18.77-22.884-32.496 0-14.024 11.41-25.436 25.436-25.436s25.438 11.412 25.438 25.436h15.492c0-14.024 11.41-25.436 25.436-25.436s25.438 11.412 25.438 25.436c-0.004 11.396-7.068 17.916-18.594 27.612zM265.206 585.894c-13.638 0-25.74 6.708-33.182 16.994-7.44-10.288-19.542-16.994-33.184-16.994-22.566 0-40.926 18.36-40.926 40.926 0 21.048 15.826 34.028 28.544 44.462 1.844 1.512 3.666 3.01 5.42 4.508 5.494 4.69 11.556 9.59 17.62 14.488 5.964 4.822 11.928 9.636 17.156 14.1l5.588 4.408 46.844-40.008 2.936-2.48c11.304-9.51 24.114-20.292 24.114-39.474 0-22.57-18.362-40.93-40.93-40.93z m6.84 68.546l-40.056 34.19a1218.856 1218.856 0 0 0-12.756-10.398c-5.95-4.81-11.9-9.616-17.294-14.22a377.602 377.602 0 0 0-5.658-4.704c-11.764-9.652-22.876-18.77-22.876-32.486 0-14.024 11.41-25.436 25.436-25.436s25.438 11.412 25.438 25.436h15.492c0-14.024 11.41-25.436 25.436-25.436s25.438 11.412 25.438 25.436c-0.002 11.39-7.07 17.916-18.6 27.618zM265.206 765.632c-13.638 0-25.74 6.708-33.182 16.994-7.44-10.288-19.542-16.994-33.184-16.994-22.566 0-40.926 18.36-40.926 40.932 0 21.054 15.832 34.034 28.552 44.466 1.84 1.508 3.662 3 5.414 4.498 5.494 4.69 11.556 9.59 17.62 14.492 5.964 4.816 11.926 9.636 17.332 14.25l5.408 4.256 49.796-42.504c11.296-9.51 24.1-20.286 24.1-39.458 0-22.572-18.362-40.932-40.93-40.932z m6.854 68.54l-40.072 34.196c-4.112-3.414-8.432-6.904-12.75-10.398-5.954-4.806-11.904-9.616-17.296-14.22a360.988 360.988 0 0 0-5.65-4.694c-11.768-9.652-22.884-18.768-22.884-32.49 0-14.028 11.41-25.44 25.436-25.44s25.438 11.412 25.438 25.44h15.492c0-14.028 11.41-25.44 25.436-25.44s25.438 11.412 25.438 25.44c-0.004 11.384-7.066 17.908-18.588 27.606zM722.762 87.312l-10.862-11.042a83.086 83.086 0 0 0-10.862 13.142l12.89 8.598a67.474 67.474 0 0 1 8.834-10.698z m-15.336 22.98l-14.352-5.83a85.62 85.62 0 0 0-4.796 16.31l15.218 2.876a70.712 70.712 0 0 1 3.93-13.356z m-5.154 27.254l-15.492 0.132c0.05 5.694 0.656 11.372 1.796 16.88l15.168-3.146a71.54 71.54 0 0 1-1.472-13.866z m116.916-41.08l12.646-8.952a83.432 83.432 0 0 0-11.226-12.834l-10.55 11.34a67.946 67.946 0 0 1 9.13 10.446z m11.114 25.336l15.138-3.268a84.842 84.842 0 0 0-5.23-16.19l-14.19 6.222a69.48 69.48 0 0 1 4.282 13.236z m-122.396 42.89l-14.24 6.096a84.754 84.754 0 0 0 8.24 14.902l12.728-8.834a68.816 68.816 0 0 1-6.728-12.164z m38.032-92.058l-5.264-14.568a78.554 78.554 0 0 0-15.386 7.56l8.3 13.082a63.026 63.026 0 0 1 12.35-6.074z m101.444 62.726l-15.492 0.338 0.016 1.216a71.54 71.54 0 0 1-1.352 13.886l15.198 3.004c1.09-5.516 1.644-11.2 1.644-16.89l-0.014-1.554z m-47.32 60.1l8.18 13.158a81.224 81.224 0 0 0 13.48-10.514l-10.762-11.144a65.802 65.802 0 0 1-10.898 8.5z m19.832-19.12l12.808 8.714a84.38 84.38 0 0 0 8.104-14.976l-14.302-5.96a68.906 68.906 0 0 1-6.61 12.222z m-106.89 22.282a80.6 80.6 0 0 0 13.58 10.394l8.048-13.238a65.208 65.208 0 0 1-10.968-8.392l-10.66 11.236z m78.318-141.312l-4.83 14.72a63.224 63.224 0 0 1 12.526 5.706l7.916-13.314a78.574 78.574 0 0 0-15.612-7.112z m-49.202 158.966a77.504 77.504 0 0 0 16.772 3.684l1.624-15.406a62.004 62.004 0 0 1-13.414-2.948l-4.982 14.67z m32.158-11.79l1.776 15.39a77.508 77.508 0 0 0 16.732-3.85l-5.124-14.62a61.806 61.806 0 0 1-13.384 3.08z m-16.914-150.438l1.926 15.37a63.474 63.474 0 0 1 13.756-0.204l1.462-15.42a77.982 77.982 0 0 0-17.144 0.254zM759.34 97.894h15.492v78.042h-15.492z" fill="#4A555F" p-id="14016"></path><path d="M728.066 129.168h78.04v15.492h-78.04z" fill="#4A555F" p-id="14017"></path></svg>