<?xml version="1.0" encoding="UTF-8"?>
<svg width="169px" height="148px" viewBox="0 0 169 148" version="1.1" xmlns="http://www.w3.org/2000/svg" xmlns:xlink="http://www.w3.org/1999/xlink">
    <title>img_nav_logo_v5 (1)</title>
    <g id="Page-1" stroke="none" stroke-width="1" fill="none" fill-rule="evenodd">
        <g id="img_nav_logo_v5-(1)" transform="translate(0.000136, 0.000605)" fill-rule="nonzero">
            <path d="M112.206446,26.7858003 C113.017173,26.91653 113.746827,26.6277086 114.053889,26.0419587 C115.335851,23.5935645 116.05233,20.3800471 115.970244,16.7875151 C115.786817,8.7430808 111.606509,1.45464906 106.467516,0.190929044 C101.146109,-1.11738093 96.5290214,4.42494848 96.3202593,12.9233896 C96.2270257,16.7267106 97.0407925,20.4327443 98.4767919,23.4932371 C98.8162837,24.2178239 99.618903,24.7721582 100.500568,24.913022 L112.206446,26.7858003 Z" id="Fill-1" fill="#00CFAC"></path>
            <path d="M106.467921,42.1621415 L106.467921,42.1621415 C102.278491,41.7202955 98.8460779,38.3730083 98.9099226,34.7521008 L98.960593,31.7716673 C98.9808612,30.6234758 100.106758,29.8563258 101.464725,30.0519136 L111.308972,31.465618 C112.569652,31.6470181 113.597248,32.6786676 113.615489,33.7772021 L113.662106,36.6258925 C113.718857,40.0866815 110.542835,42.59284 106.467921,42.1621415" id="Fill-3" fill="#00CFAC"></path>
            <path d="M136.476356,43.0428946 C137.007382,43.585068 137.763385,43.8282859 138.394738,43.6489127 C141.027573,42.894937 143.718171,41.3646906 146.012527,39.1747155 C151.040046,34.3762277 152.386865,28.0697885 149.296983,24.7731716 C146.178726,21.4461525 139.419294,22.1119617 133.890139,26.5547432 C131.363712,28.5856133 129.516269,31.0613695 128.517048,33.5421927 C128.277884,34.1350365 128.485633,34.8819184 129.02882,35.4372661 L136.476356,43.0428946 Z" id="Fill-29" fill="#00CFAC"></path>
            <path d="M121.459775,49.1777638 L121.459775,49.1777638 C118.695197,46.4385214 118.586763,42.4325188 121.16386,40.3084152 L123.260601,38.5805543 C124.062207,37.9208255 125.398893,38.0910781 126.251169,38.9534885 L132.600171,45.3805233 C133.43522,46.2267191 133.511225,47.4691575 132.76333,48.1663824 L130.810492,49.9864635 C128.409728,52.2230554 124.203071,51.8967379 121.459775,49.1777638" id="Fill-31" fill="#00CFAC"></path>
            <path d="M79.8976755,28.6345609 C80.6486109,28.175487 80.9333786,27.3759079 80.6060478,26.5925434 C79.218692,23.2878192 76.5990318,19.570638 72.887931,15.9639182 C64.2020093,7.52425477 52.3978307,2.5443669 46.4481112,5.12551757 C40.1984228,7.8373979 42.9680674,17.6694842 52.7048934,26.7536753 C56.859867,30.6299616 61.5205313,33.6306633 65.8741329,35.4852003 C66.8895679,35.9179256 68.0894432,35.8510406 68.9255049,35.3402829 L79.8976755,28.6345609 Z" id="Fill-5" fill="#8B65FF"></path>
            <path d="M89.8051593,46.4433858 L89.8051593,46.4433858 C86.3463972,48.9596783 80.7523839,48.526953 77.3919224,45.3701865 L74.5614733,42.7130302 C73.4548315,41.6742868 73.5663064,40.1764695 74.8006376,39.3789172 L83.6679593,33.6521475 C84.7928424,32.9255339 86.5277972,33.1464568 87.5503261,34.1355432 L90.1699863,36.6670369 C93.2811495,39.6728056 93.1504198,44.0091793 89.8051593,46.4433858" id="Fill-7" fill="#8B65FF"></path>
            <path d="M56.6323568,53.7282706 C56.7367379,52.7807339 56.1124784,51.874747 55.0200244,51.4288474 C50.3309847,49.5175595 44.0468405,48.1079087 36.7989451,47.5941108 C18.9497865,46.3293773 1.82724166,50.963693 0.134849969,58.2683393 C-1.61429257,65.8141767 13.8878126,72.1824338 32.9652219,72.257426 C40.6833387,72.2868148 47.6191044,71.2592189 52.9546985,69.5729077 C54.1859895,69.183759 55.0372523,68.2686514 55.1487272,67.2603102 L56.6323568,53.7282706 Z" id="Fill-9" fill="#8B65FF"></path>
            <path d="M81.5053462,61.3703818 L81.5053462,61.3703818 C81.2722623,65.6834471 76.8396149,69.1807187 71.4523369,69.1067399 L66.814981,69.0418818 C64.9766586,69.01756 63.5832223,67.7720813 63.7210458,66.2722372 L64.7273602,55.2828387 C64.8570764,53.8620405 66.4086044,52.8050557 68.1770017,52.9134904 L72.6380245,53.1891374 C77.8276879,53.508361 81.7343765,57.1363623 81.5053462,61.3703818" id="Fill-11" fill="#8B65FF"></path>
            <path d="M64.2665635,89.4351003 C63.4406358,88.7196341 62.1191515,88.5280999 60.8949544,88.9770398 C55.5897625,90.9207567 49.5285681,94.3572239 43.6001301,99.1222692 C28.7962632,111.020695 21.0153151,126.065753 27.7808282,131.309127 C34.4348664,136.467375 51.5918672,129.286364 64.7651603,116.714022 C70.0510974,111.668263 73.8675927,106.537377 76.038313,102.041898 C76.5409635,100.999101 76.331188,99.8823254 75.5305955,99.1881407 L64.2665635,89.4351003 Z" id="Fill-13" fill="#FF2967"></path>
            <path d="M88.6309233,77.9609887 L88.6309233,77.9609887 C92.0410418,81.0630312 91.884977,86.2557347 88.1931309,89.6962556 L85.0039353,92.6675684 C83.7371751,93.8481889 81.740761,93.9728382 80.5560868,92.9300411 L71.5195259,84.9788404 C70.3024227,83.907668 70.4361925,82.1108952 71.8063204,80.9809451 L75.2549485,78.1403619 C79.24575,74.8518523 85.189389,74.8305708 88.6309233,77.9609887" id="Fill-15" fill="#FF2967"></path>
            <path d="M99.3582544,106.348275 C98.3032964,106.460763 97.3223173,107.171162 96.8804713,108.173423 C94.9793176,112.494596 93.7419462,118.013617 93.595002,124.009953 C93.2423359,138.356773 99.1464521,149.05127 106.468326,147.251457 C113.447669,145.534743 118.618077,133.104278 118.320135,120.023205 C118.195486,114.539653 117.136474,109.729005 115.477525,106.09695 C115.08635,105.241633 114.209751,104.765331 113.255121,104.867686 L99.3582544,106.348275 Z" id="Fill-17" fill="#FF2967"></path>
            <path d="M106.467921,84.4056567 L106.467921,84.4056567 C110.925904,84.2465517 114.501208,87.5654635 114.572146,91.8835958 L114.631937,95.5490933 C114.656259,96.9901597 113.510094,98.261987 112.058894,98.383596 L100.660079,99.3412667 C99.0781484,99.4740232 97.8053077,98.3379926 97.8326697,96.8097731 L97.8995546,92.9233526 C97.9796139,88.3518683 101.872115,84.5688155 106.467921,84.4056567" id="Fill-19" fill="#FF2967"></path>
            <path d="M132.102081,94.8227836 C131.549774,95.4936598 131.403843,96.4503172 131.752455,97.2529365 C133.233045,100.664068 135.752378,104.237346 139.076356,107.338375 C146.611046,114.368387 155.082125,116.068886 158.025063,111.453825 C160.845378,107.030299 157.586257,98.2693849 150.72751,91.6031858 C147.704514,88.6673422 144.430192,86.5543861 141.396048,85.4143019 C140.672474,85.1416951 139.881003,85.3686986 139.380379,85.9767435 L132.102081,94.8227836 Z" id="Fill-21" fill="#FFBB00"></path>
            <path d="M122.404373,77.5087046 L122.404373,77.5087046 C125.095985,74.6924432 129.49823,74.6772421 132.29017,77.3759481 L134.606821,79.6145668 C135.503687,80.4820442 135.59084,81.9231107 134.796328,82.8463256 L128.55272,90.0932076 C127.686256,91.0985085 126.199587,91.191742 125.237862,90.2887953 L122.752985,87.9559297 C119.75431,85.1416951 119.625608,80.4161727 122.404373,77.5087046" id="Fill-23" fill="#FFBB00"></path>
            <path d="M144.674626,68.9105441 C144.736444,69.6635064 145.205652,70.3597178 145.877541,70.6657671 C148.696843,71.9548223 152.153578,72.726026 155.747124,72.7392003 C163.646641,72.7706159 169.204171,69.1314671 168.611328,64.6907124 C168.028618,60.3330571 161.674548,56.4415697 153.993928,55.8983829 C150.505777,55.6511113 147.282125,56.1243729 144.745565,57.1357543 C144.13752,57.3779588 143.787894,58.0072853 143.845658,58.7257917 L144.674626,68.9105441 Z" id="Fill-25" fill="#FFBB00"></path>
            <path d="M127.859346,63.1369549 L127.859346,63.1369549 C127.691121,59.4896988 130.504342,56.7575504 134.055324,56.9764465 L136.952658,57.1558198 C138.06234,57.2237181 139.020011,58.1844291 139.10007,59.306272 L139.711155,67.9283489 C139.794255,69.0988353 138.947046,70.0392782 137.808988,70.0230636 L134.839702,69.9815139 C131.1965,69.9318569 128.029599,66.8419753 127.859346,63.1369549" id="Fill-27" fill="#FFBB00"></path>
            <path d="M121.917532,62.9093435 C122.182031,70.8595307 115.484416,77.5997087 106.468124,77.7203042 C96.8731748,77.8479937 88.9077864,70.5240926 89.2381575,61.6638648 C89.5563676,53.1319812 97.489327,47.1052427 106.468124,47.8815133 C114.937176,48.6142075 121.661139,55.2236557 121.917532,62.9093435" id="Fill-33" fill="#3434B2"></path>
        </g>
    </g>
</svg>